<svg width="20" height="14" viewBox="0 0 20 14" fill="none" xmlns="http://www.w3.org/2000/svg">
<path fill-rule="evenodd" clip-rule="evenodd" d="M0.981445 1.03633C0.981445 0.594501 1.33962 0.236328 1.78145 0.236328H18.2182C18.6601 0.236328 19.0182 0.5945 19.0182 1.03633V12.9639C19.0182 13.4058 18.6601 13.7639 18.2182 13.7639H1.78144C1.33962 13.7639 0.981445 13.4058 0.981445 12.9639V1.03633ZM7.71663 4.34954C7.71663 4.0734 7.94048 3.84954 8.21663 3.84954H15.0259C15.302 3.84954 15.5259 4.0734 15.5259 4.34954C15.5259 4.62568 15.302 4.84954 15.0259 4.84954H8.21663C7.94048 4.84954 7.71663 4.62568 7.71663 4.34954ZM4.86703 3.84958C4.59089 3.84958 4.36703 4.07344 4.36703 4.34958C4.36703 4.62572 4.59089 4.84958 4.86703 4.84958H5.54188C5.81802 4.84958 6.04188 4.62572 6.04188 4.34958C6.04188 4.07344 5.81802 3.84958 5.54188 3.84958H4.86703ZM4.36703 9.76062C4.36703 9.48448 4.59089 9.26062 4.86703 9.26062H5.54188C5.81802 9.26062 6.04188 9.48448 6.04188 9.76062C6.04188 10.0368 5.81802 10.2606 5.54188 10.2606H4.86703C4.59089 10.2606 4.36703 10.0368 4.36703 9.76062ZM8.21663 9.26073C7.94048 9.26073 7.71663 9.48459 7.71663 9.76073C7.71663 10.0369 7.94048 10.2607 8.21663 10.2607H15.0259C15.302 10.2607 15.5259 10.0369 15.5259 9.76073C15.5259 9.48459 15.302 9.26073 15.0259 9.26073H8.21663ZM4.36703 7.05508C4.36703 6.77894 4.59089 6.55508 4.86703 6.55508H5.54188C5.81802 6.55508 6.04188 6.77894 6.04188 7.05508C6.04188 7.33123 5.81802 7.55508 5.54188 7.55508H4.86703C4.59089 7.55508 4.36703 7.33123 4.36703 7.05508ZM8.21663 6.555C7.94048 6.555 7.71663 6.77885 7.71663 7.055C7.71663 7.33114 7.94048 7.555 8.21663 7.555H15.0259C15.302 7.555 15.5259 7.33114 15.5259 7.055C15.5259 6.77885 15.302 6.555 15.0259 6.555H8.21663Z" fill="white"/>
</svg>
