<svg width="12" height="12" viewBox="0 0 12 12" fill="none" xmlns="http://www.w3.org/2000/svg">
<path d="M2.625 0C2.83211 0 3 0.167893 3 0.375V0.75H9V0.375C9 0.167893 9.16789 0 9.375 0C9.58211 0 9.75 0.167893 9.75 0.375V0.75H10.5C11.3284 0.75 12 1.42157 12 2.25V10.5C12 11.3284 11.3284 12 10.5 12H1.5C0.671573 12 0 11.3284 0 10.5V2.25C0 1.42157 0.671573 0.75 1.5 0.75H2.25V0.375C2.25 0.167893 2.41789 0 2.625 0ZM1.5 1.5C1.08579 1.5 0.75 1.83579 0.75 2.25V3H11.25V2.25C11.25 1.83579 10.9142 1.5 10.5 1.5H1.5ZM11.25 3.75H0.75V10.5C0.75 10.9142 1.08579 11.25 1.5 11.25H10.5C10.9142 11.25 11.25 10.9142 11.25 10.5V3.75Z" fill="#111111"/>
</svg>
