<svg width="20" height="20" viewBox="0 0 18 18" fill="none" xmlns="http://www.w3.org/2000/svg">
<path d="M15.5625 1.34375C16.1666 1.34375 16.6562 1.83344 16.6562 2.4375V15.5625C16.6562 16.1666 16.1666 16.6562 15.5625 16.6562H2.4375C1.83344 16.6562 1.34375 16.1666 1.34375 15.5625V2.4375C1.34375 1.83344 1.83344 1.34375 2.4375 1.34375H15.5625ZM2.4375 0.25C1.22938 0.25 0.25 1.22938 0.25 2.4375V15.5625C0.25 16.7706 1.22938 17.75 2.4375 17.75H15.5625C16.7706 17.75 17.75 16.7706 17.75 15.5625V2.4375C17.75 1.22938 16.7706 0.25 15.5625 0.25H2.4375Z" fill="#919191"/>
</svg>
