<svg width="20" height="20" viewBox="0 0 18 18" fill="none" xmlns="http://www.w3.org/2000/svg">
<path d="M2.4375 0.25C1.22938 0.25 0.25 1.22938 0.25 2.4375V15.5625C0.25 16.7706 1.22938 17.75 2.4375 17.75H15.5625C16.7706 17.75 17.75 16.7706 17.75 15.5625V2.4375C17.75 1.22938 16.7706 0.25 15.5625 0.25H2.4375ZM13.4082 5.68558C13.7246 6.002 13.7285 6.51261 13.4198 6.8338L9.05334 12.2919C9.04703 12.2998 9.0403 12.3073 9.03317 12.3144C8.71281 12.6348 8.19342 12.6348 7.87307 12.3144L4.97852 9.41987C4.65817 9.09952 4.65817 8.58013 4.97852 8.25978C5.29887 7.93942 5.81826 7.93942 6.13861 8.25978L8.4284 10.5496L12.2263 5.71011C12.2331 5.70151 12.2403 5.69331 12.2481 5.68558C12.5684 5.36522 13.0878 5.36522 13.4082 5.68558Z" fill="#0079BF"/>
</svg>
