<svg width="14" height="14" viewBox="0 0 14 14" fill="none" xmlns="http://www.w3.org/2000/svg">
<path d="M5.4 1.4H1.4L1.4 12.6H5.4V1.4ZM12.6 1.4H8.6V5.4H12.6V1.4ZM12.6 8.6V12.6H8.6V8.6H12.6ZM0.599998 1.4C0.599998 0.958171 0.958171 0.599998 1.4 0.599998H5.4C5.84183 0.599998 6.2 0.958171 6.2 1.4V12.6C6.2 13.0418 5.84183 13.4 5.4 13.4H1.4C0.958171 13.4 0.599998 13.0418 0.599998 12.6V1.4ZM7.8 1.4C7.8 0.958171 8.15817 0.599998 8.6 0.599998H12.6C13.0418 0.599998 13.4 0.958171 13.4 1.4V5.4C13.4 5.84183 13.0418 6.2 12.6 6.2H8.6C8.15817 6.2 7.8 5.84183 7.8 5.4V1.4ZM8.6 7.8C8.15817 7.8 7.8 8.15817 7.8 8.6V12.6C7.8 13.0418 8.15817 13.4 8.6 13.4H12.6C13.0418 13.4 13.4 13.0418 13.4 12.6V8.6C13.4 8.15817 13.0418 7.8 12.6 7.8H8.6Z" fill="#343A40"/>
</svg>
