<svg width="16" height="16" viewBox="0 0 16 16" fill="none" xmlns="http://www.w3.org/2000/svg">
<path d="M0.5 1.4375C0.5 0.919733 0.919733 0.5 1.4375 0.5H6.125C6.64277 0.5 7.0625 0.919733 7.0625 1.4375V14.5625C7.0625 15.0803 6.64277 15.5 6.125 15.5H1.4375C0.919733 15.5 0.5 15.0803 0.5 14.5625V1.4375Z" fill="#919191"/>
<path d="M8.9375 1.4375C8.9375 0.919733 9.35723 0.5 9.875 0.5H14.5625C15.0803 0.5 15.5 0.919733 15.5 1.4375V6.125C15.5 6.64277 15.0803 7.0625 14.5625 7.0625H9.875C9.35723 7.0625 8.9375 6.64277 8.9375 6.125V1.4375Z" fill="#919191"/>
<path d="M8.9375 9.875C8.9375 9.35723 9.35723 8.9375 9.875 8.9375H14.5625C15.0803 8.9375 15.5 9.35723 15.5 9.875V14.5625C15.5 15.0803 15.0803 15.5 14.5625 15.5H9.875C9.35723 15.5 8.9375 15.0803 8.9375 14.5625V9.875Z" fill="#919191"/>
</svg>
