<svg width="11" height="14" viewBox="0 0 11 14" fill="none" xmlns="http://www.w3.org/2000/svg">
<path d="M9.30769 0H3.38462C2.44998 0 1.69231 0.783502 1.69231 1.75C0.757672 1.75 0 2.5335 0 3.5V12.25C0 13.2165 0.757672 14 1.69231 14H7.61538C8.55002 14 9.30769 13.2165 9.30769 12.25C10.2423 12.25 11 11.4665 11 10.5V1.75C11 0.783502 10.2423 0 9.30769 0ZM9.30769 11.375V3.5C9.30769 2.5335 8.55002 1.75 7.61538 1.75H2.53846C2.53846 1.26675 2.9173 0.875 3.38462 0.875H9.30769C9.77501 0.875 10.1538 1.26675 10.1538 1.75V10.5C10.1538 10.9832 9.77501 11.375 9.30769 11.375ZM0.846154 3.5C0.846154 3.01675 1.22499 2.625 1.69231 2.625H7.61538C8.0827 2.625 8.46154 3.01675 8.46154 3.5V12.25C8.46154 12.7332 8.0827 13.125 7.61538 13.125H1.69231C1.22499 13.125 0.846154 12.7332 0.846154 12.25V3.5Z" fill="#343A40"/>
</svg>
