<svg width="12" height="14" viewBox="0 0 12 14" fill="none" xmlns="http://www.w3.org/2000/svg">
<path d="M6 14C6.94677 14 7.71429 13.2165 7.71429 12.25H4.28571C4.28571 13.2165 5.05323 14 6 14Z" fill="#343A40"/>
<path d="M6 1.67847L5.31669 1.81935C3.75045 2.14225 2.57145 3.55655 2.57145 5.25C2.57145 5.79935 2.45628 7.17259 2.17813 8.52439C2.04006 9.19546 1.85532 9.89417 1.60979 10.5H10.3902C10.1447 9.89417 9.95996 9.19545 9.82188 8.52439C9.54375 7.17259 9.42859 5.79934 9.42859 5.25C9.42859 3.55654 8.24957 2.14224 6.68332 1.81934L6 1.67847ZM11.3308 10.5C11.5222 10.8915 11.7441 11.2009 12 11.375H0C0.25588 11.2009 0.477811 10.8915 0.669171 10.5C1.43933 8.92445 1.7143 6.01927 1.7143 5.25C1.7143 3.13192 3.18874 1.36539 5.14701 0.961662C5.14426 0.933154 5.14286 0.904245 5.14286 0.875C5.14286 0.391751 5.52661 0 6 0C6.47339 0 6.85714 0.391751 6.85714 0.875C6.85714 0.904242 6.85574 0.933149 6.85299 0.961654C8.81128 1.36537 10.2857 3.13191 10.2857 5.25C10.2857 6.01927 10.5607 8.92445 11.3308 10.5Z" fill="#343A40"/>
</svg>
