<svg width="22" height="22" viewBox="0 0 22 22" fill="none" xmlns="http://www.w3.org/2000/svg">
<path fill-rule="evenodd" clip-rule="evenodd" d="M13.7219 3.35409C14.5274 2.54864 15.8333 2.54864 16.6387 3.35409L17.8784 4.59376C18.6838 5.39922 18.6838 6.70512 17.8784 7.51058L8.38721 17.0017L4.10914 18.4278C3.30295 18.6965 2.53597 17.9295 2.8047 17.1233L4.23072 12.8453L13.7219 3.35409ZM15.6664 4.32636C15.398 4.05788 14.9627 4.05788 14.6942 4.32636L13.7644 5.25611L15.9764 7.46805L16.9061 6.5383C17.1746 6.26982 17.1746 5.83452 16.9061 5.56603L15.6664 4.32636ZM15.0041 8.44032L12.7921 6.22839L5.80389 13.2166L8.01583 15.4286L15.0041 8.44032ZM6.74311 16.1004L5.13207 14.4894L4.32655 16.9059L6.74311 16.1004Z" fill="#919191"/>
</svg>
