<svg width="24" height="24" viewBox="0 0 24 24" fill="none" xmlns="http://www.w3.org/2000/svg">
<path fill-rule="evenodd" clip-rule="evenodd" d="M12.3807 17.8402C12.1705 18.0533 11.8295 18.0533 11.6192 17.8402L5.15771 11.2948C4.94743 11.0818 4.94743 10.7364 5.15771 10.5234C5.36799 10.3104 5.70893 10.3104 5.91921 10.5234L12 16.6832L18.0808 10.5234C18.2911 10.3104 18.632 10.3104 18.8423 10.5234C19.0526 10.7364 19.0526 11.0818 18.8423 11.2948L12.3807 17.8402Z" fill="#B2B2B2"/>
<path fill-rule="evenodd" clip-rule="evenodd" d="M12.3807 13.4766C12.1705 13.6896 11.8295 13.6896 11.6192 13.4766L5.15771 6.93115C4.94743 6.71813 4.94743 6.37277 5.15771 6.15976C5.36799 5.94675 5.70893 5.94675 5.91921 6.15976L12 12.3195L18.0808 6.15976C18.2911 5.94675 18.632 5.94675 18.8423 6.15976C19.0526 6.37277 19.0526 6.71813 18.8423 6.93115L12.3807 13.4766Z" fill="#B2B2B2"/>
<path fill-rule="evenodd" clip-rule="evenodd" d="M12.3807 17.8402C12.1705 18.0533 11.8295 18.0533 11.6192 17.8402L5.15771 11.2948C4.94743 11.0818 4.94743 10.7364 5.15771 10.5234C5.36799 10.3104 5.70893 10.3104 5.91921 10.5234L12 16.6832L18.0808 10.5234C18.2911 10.3104 18.632 10.3104 18.8423 10.5234C19.0526 10.7364 19.0526 11.0818 18.8423 11.2948L12.3807 17.8402Z" stroke="#B2B2B2" stroke-width="0.6" stroke-linecap="round" stroke-linejoin="round"/>
<path fill-rule="evenodd" clip-rule="evenodd" d="M12.3807 13.4766C12.1705 13.6896 11.8295 13.6896 11.6192 13.4766L5.15771 6.93115C4.94743 6.71813 4.94743 6.37277 5.15771 6.15976C5.36799 5.94675 5.70893 5.94675 5.91921 6.15976L12 12.3195L18.0808 6.15976C18.2911 5.94675 18.632 5.94675 18.8423 6.15976C19.0526 6.37277 19.0526 6.71813 18.8423 6.93115L12.3807 13.4766Z" stroke="#B2B2B2" stroke-width="0.6" stroke-linecap="round" stroke-linejoin="round"/>
</svg>
