<svg width="28" height="31" viewBox="0 0 28 31" fill="none" xmlns="http://www.w3.org/2000/svg">
<path d="M14.0003 20.5829C13.1901 20.5865 12.3905 20.388 11.6673 20.0038C10.9441 19.6195 10.3177 19.0604 9.83973 18.3724L6.50781 20.3852C6.6346 20.5389 6.7847 20.6695 6.95208 20.7716L12.8811 24.3659C13.2277 24.5521 13.6112 24.6491 14.0003 24.6491C14.3894 24.6491 14.773 24.5521 15.1195 24.3659L21.0485 20.7716C21.2159 20.6695 21.366 20.5389 21.4928 20.3852L18.1695 18.3364C17.6942 19.0324 17.0682 19.5992 16.3431 19.9898C15.6181 20.3805 14.815 20.5838 14.0003 20.5829Z" fill="#0079BF"/>
<path d="M8.78356 15.1585C8.7866 13.8806 9.27785 12.6486 10.1634 11.698C11.049 10.7473 12.2668 10.1447 13.584 10.0053V6.13184C13.3842 6.1719 13.1919 6.24142 13.014 6.33797L6.83309 9.77345C6.49714 9.99018 6.21779 10.279 6.01695 10.6172C5.81607 10.9555 5.69914 11.3339 5.67529 11.7231V18.594C5.67804 18.7922 5.71101 18.9891 5.77324 19.178L9.24672 17.2456C8.94298 16.5887 8.78522 15.8778 8.78356 15.1585Z" fill="#0079BF"/>
<path d="M21.2282 9.77105L15.3725 6.33784C15.204 6.24134 15.0219 6.17186 14.8325 6.13184V9.99418C15.628 10.0859 16.3913 10.3663 17.0607 10.8129C17.7302 11.2594 18.2873 11.8597 18.6871 12.5653C19.0868 13.2708 19.3181 14.0621 19.3623 14.8752C19.4065 15.6884 19.2624 16.5007 18.9416 17.2469L22.2322 19.178C22.2912 18.9892 22.3224 18.7925 22.325 18.5944V11.728C22.3037 11.3376 22.1935 10.9577 22.0032 10.6181C21.8128 10.2785 21.5475 9.9885 21.2282 9.77105Z" fill="#0079BF"/>
<path d="M25.4935 6.33008L15.8269 0.677795C15.26 0.389895 14.6345 0.23999 14.0002 0.23999C13.3659 0.23999 12.7404 0.389895 12.1735 0.677795L2.50685 6.33008C1.97625 6.68006 1.53449 7.15144 1.21714 7.70616C0.899831 8.26087 0.71589 8.88335 0.680176 9.52328V20.8278C0.715224 21.4691 0.898832 22.0931 1.21614 22.6494C1.53345 23.2056 1.97559 23.6785 2.50685 24.0299L12.1735 29.6823C12.7404 29.9702 13.3659 30.12 14.0002 30.12C14.6345 30.12 15.26 29.9702 15.8269 29.6823L25.4935 24.0299C26.0248 23.6785 26.4669 23.2056 26.7842 22.6494C27.1015 22.0931 27.2851 21.4691 27.3202 20.8278V9.52328C27.2845 8.88335 27.1005 8.26087 26.7832 7.70616C26.4659 7.15144 26.0241 6.68006 25.4935 6.33008ZM24.2524 19.5275C24.224 20.0202 24.0819 20.4993 23.8375 20.9263C23.5932 21.3534 23.2533 21.7165 22.8452 21.9866L15.3986 26.3386C14.9636 26.5609 14.4831 26.6768 13.9958 26.6768C13.5085 26.6768 13.028 26.5609 12.593 26.3386L5.15515 21.9866C4.74702 21.7165 4.40715 21.3534 4.16281 20.9263C3.91843 20.4993 3.77637 20.0202 3.74798 19.5275V10.8324C3.77637 10.3398 3.91843 9.86072 4.16281 9.43369C4.40715 9.00661 4.74702 8.64347 5.15515 8.37337L12.5843 4.02141C13.0192 3.79908 13.4997 3.68322 13.9871 3.68322C14.4744 3.68322 14.9549 3.79908 15.3899 4.02141L22.8365 8.37337C23.2462 8.6425 23.5878 9.00523 23.8337 9.43234C24.0796 9.85941 24.223 10.339 24.2524 10.8324V19.5275Z" fill="#0079BF"/>
<path d="M10.2539 15.18C10.2539 15.8874 10.4736 16.5791 10.8852 17.1673C11.2969 17.7556 11.882 18.2141 12.5665 18.4849C13.2511 18.7556 14.0043 18.8264 14.731 18.6884C15.4577 18.5504 16.1252 18.2097 16.6491 17.7094C17.1731 17.2092 17.5299 16.5717 17.6744 15.8779C17.819 15.1839 17.7448 14.4647 17.4612 13.811C17.1777 13.1574 16.6976 12.5987 16.0815 12.2056C15.4654 11.8126 14.7411 11.6028 14.0002 11.6028C13.0066 11.6028 12.0537 11.9797 11.3512 12.6505C10.6486 13.3214 10.2539 14.2313 10.2539 15.18Z" fill="#0079BF"/>
</svg>
