<svg width="20" height="14" viewBox="0 0 20 14" fill="none" xmlns="http://www.w3.org/2000/svg">
<path d="M8.85416 13.6667C8.85416 13.6667 7.70833 13.6667 7.70833 12.5556C7.70833 11.4444 8.85416 8.11111 13.4375 8.11111C18.0208 8.11111 19.1667 11.4444 19.1667 12.5556C19.1667 13.6667 18.0208 13.6667 18.0208 13.6667H8.85416Z" fill="#919191"/>
<path d="M13.4375 7C15.336 7 16.875 5.50761 16.875 3.66667C16.875 1.82572 15.336 0.333332 13.4375 0.333332C11.539 0.333332 10 1.82572 10 3.66667C10 5.50761 11.539 7 13.4375 7Z" fill="#919191"/>
<path d="M6.81041 13.6667C6.64908 13.351 6.5625 12.9768 6.5625 12.5556C6.5625 11.0495 7.34058 9.50061 8.78075 8.42218C8.15073 8.22677 7.41625 8.11111 6.5625 8.11111C1.97916 8.11111 0.833328 11.4444 0.833328 12.5556C0.833328 13.6667 1.97916 13.6667 1.97916 13.6667H6.81041Z" fill="#919191"/>
<path d="M5.98958 7C7.57164 7 8.85416 5.75634 8.85416 4.22222C8.85416 2.6881 7.57164 1.44444 5.98958 1.44444C4.40751 1.44444 3.125 2.6881 3.125 4.22222C3.125 5.75634 4.40751 7 5.98958 7Z" fill="#919191"/>
</svg>
