<svg width="23" height="22" viewBox="0 0 23 22" fill="none" xmlns="http://www.w3.org/2000/svg">
<path fill-rule="evenodd" clip-rule="evenodd" d="M20.8096 15.7143C20.8096 15.2803 20.4622 14.9286 20.0338 14.9286H2.96632C2.53786 14.9286 2.19052 15.2803 2.19052 15.7143C2.19052 16.1482 2.53786 16.5 2.96632 16.5H20.0338C20.4622 16.5 20.8096 16.1482 20.8096 15.7143Z" fill="#919191"/>
<path fill-rule="evenodd" clip-rule="evenodd" d="M20.8096 11C20.8096 10.5661 20.4622 10.2143 20.0338 10.2143H9.17267C8.74421 10.2143 8.39687 10.5661 8.39687 11C8.39687 11.4339 8.74421 11.7857 9.17267 11.7857H20.0338C20.4622 11.7857 20.8096 11.4339 20.8096 11Z" fill="#919191"/>
<path fill-rule="evenodd" clip-rule="evenodd" d="M20.8096 6.28571C20.8096 5.85178 20.4622 5.5 20.0338 5.5H2.96632C2.53786 5.5 2.19052 5.85178 2.19052 6.28571C2.19052 6.71965 2.53786 7.07143 2.96632 7.07143H20.0338C20.4622 7.07143 20.8096 6.71965 20.8096 6.28571Z" fill="#919191"/>
</svg>
