<svg width="10" height="12" viewBox="0 0 10 12" fill="none" xmlns="http://www.w3.org/2000/svg">
<path d="M0 0.428571C0 0.191878 0.186548 0 0.416667 0H9.58333C9.81345 0 10 0.191878 10 0.428571C10 0.665264 9.81345 0.857141 9.58333 0.857141H8.75V1.71428C8.75 3.24866 7.87893 4.57293 6.61954 5.19404C6.37796 5.31318 6.25 5.51729 6.25 5.6993V6.3007C6.25 6.48271 6.37796 6.68682 6.61954 6.80596C7.87893 7.42707 8.75 8.75134 8.75 10.2857V11.1429L9.58333 11.1428C9.81345 11.1428 10 11.3347 10 11.5714C10 11.8081 9.81346 12 9.58334 12L0.416667 12C0.186548 12 0 11.8081 0 11.5714C0 11.3347 0.186548 11.1429 0.416667 11.1429H1.25V10.2857C1.25 8.75134 2.12107 7.42707 3.38046 6.80596C3.62204 6.68682 3.75 6.48271 3.75 6.3007V5.6993C3.75 5.51729 3.62204 5.31318 3.38046 5.19404C2.12107 4.57293 1.25 3.24866 1.25 1.71428V0.857141H0.416667C0.186548 0.857141 0 0.665264 0 0.428571ZM2.08333 0.857141V1.71428C2.08333 2.90654 2.75949 3.93721 3.74075 4.42115C4.18489 4.64019 4.58333 5.0991 4.58333 5.6993V6.3007C4.58333 6.9009 4.18489 7.35981 3.74075 7.57885C2.75949 8.06279 2.08333 9.09346 2.08333 10.2857V11.1429H7.91667V10.2857C7.91667 9.09346 7.24051 8.06279 6.25925 7.57885C5.81511 7.35981 5.41667 6.9009 5.41667 6.3007V5.6993C5.41667 5.0991 5.81511 4.64019 6.25925 4.42115C7.24051 3.93721 7.91667 2.90654 7.91667 1.71428V0.857141H2.08333Z" fill="#C7852C"/>
</svg>
