<svg width="17" height="19" viewBox="0 0 17 19" fill="none" xmlns="http://www.w3.org/2000/svg">
<path d="M8.30769 18.6154C9.59282 18.6154 10.6346 17.5736 10.6346 16.2885H5.98077C5.98077 17.5736 7.02257 18.6154 8.30769 18.6154Z" fill="#919191"/>
<path d="M9.46552 1.27868C9.46925 1.24078 9.47115 1.20234 9.47115 1.16346C9.47115 0.5209 8.95025 0 8.30769 0C7.66513 0 7.14423 0.5209 7.14423 1.16346C7.14423 1.20235 7.14614 1.24079 7.14987 1.27869C4.49177 1.81552 2.49041 4.16442 2.49041 6.98077C2.49041 8.25779 1.90865 13.9615 0.163462 15.125H16.4519C14.7067 13.9615 14.125 8.25779 14.125 6.98077C14.125 4.16441 12.1236 1.81549 9.46552 1.27868Z" fill="#919191"/>
</svg>
