<svg width="12" height="12" viewBox="0 0 12 12" fill="none" xmlns="http://www.w3.org/2000/svg">
<path d="M6.00015 0.399902C6.38674 0.399902 6.70015 0.713303 6.70015 1.0999V5.2999H10.9001C11.2867 5.2999 11.6001 5.6133 11.6001 5.9999C11.6001 6.3865 11.2867 6.6999 10.9001 6.6999H6.70015V10.8999C6.70015 11.2865 6.38674 11.5999 6.00015 11.5999C5.61355 11.5999 5.30015 11.2865 5.30015 10.8999V6.6999H1.10015C0.713547 6.6999 0.400146 6.3865 0.400146 5.9999C0.400146 5.6133 0.713547 5.2999 1.10015 5.2999H5.30015V1.0999C5.30015 0.713303 5.61355 0.399902 6.00015 0.399902Z" fill="white"/>
</svg>
