<svg width="12" height="14" viewBox="0 0 12 14" fill="none" xmlns="http://www.w3.org/2000/svg">
<path fill-rule="evenodd" clip-rule="evenodd" d="M6 3C8.76142 3 11 5.23857 11 8C11 10.7614 8.76142 13 6 13C3.23858 13 1 10.7614 1 8C1 7.25457 1.1628 6.54852 1.45431 5.91433C1.56963 5.66343 1.45973 5.36654 1.20882 5.25121C0.957916 5.13588 0.661024 5.24578 0.545694 5.49669C0.195193 6.25923 0 7.1075 0 8C0 11.3137 2.68629 14 6 14C9.31371 14 12 11.3137 12 8C12 4.68629 9.31371 2 6 2V3Z" fill="black"/>
<path d="M6 4.46624V0.533757C6 0.321798 5.75279 0.206009 5.58995 0.341702L3.23047 2.30794C3.11053 2.40789 3.11053 2.5921 3.23047 2.69205L5.58995 4.65829C5.75279 4.79399 6 4.6782 6 4.46624Z" fill="black"/>
</svg>
