<svg width="18" height="18" viewBox="0 0 18 18" fill="none" xmlns="http://www.w3.org/2000/svg">
<path d="M10.4632 1.76082C10.0332 0.30195 7.96681 0.301951 7.53682 1.76082L7.43254 2.11462C7.15778 3.04677 6.09308 3.48779 5.23967 3.02293L4.91576 2.8465C3.58013 2.11898 2.11898 3.58013 2.8465 4.91576L3.02293 5.23967C3.48779 6.09308 3.04678 7.15778 2.11462 7.43253L1.76082 7.53681C0.301954 7.96681 0.301955 10.0332 1.76082 10.4632L2.11462 10.5675C3.04678 10.8422 3.48779 11.9069 3.02293 12.7603L2.8465 13.0842C2.11898 14.4199 3.58013 15.881 4.91576 15.1535L5.23967 14.9771C6.09308 14.5122 7.15779 14.9532 7.43254 15.8854L7.53682 16.2392C7.96681 17.6981 10.0332 17.698 10.4632 16.2392L10.5675 15.8854C10.8422 14.9532 11.9069 14.5122 12.7603 14.9771L13.0842 15.1535C14.4199 15.881 15.881 14.4199 15.1535 13.0842L14.9771 12.7603C14.5122 11.9069 14.9532 10.8422 15.8854 10.5675L16.2392 10.4632C17.6981 10.0332 17.6981 7.96681 16.2392 7.53681L15.8854 7.43253C14.9532 7.15778 14.5122 6.09308 14.9771 5.23967L15.1535 4.91576C15.881 3.58013 14.4199 2.11898 13.0842 2.8465L12.7603 3.02293C11.9069 3.48779 10.8422 3.04677 10.5675 2.11462L10.4632 1.76082ZM9 12.0508C7.31507 12.0508 5.94916 10.6849 5.94916 9C5.94916 7.31506 7.31507 5.94915 9 5.94915C10.6849 5.94915 12.0509 7.31506 12.0509 9C12.0509 10.6849 10.6849 12.0508 9 12.0508Z" fill="#919191"/>
</svg>
