<svg width="16" height="16" viewBox="0 0 16 16" fill="none" xmlns="http://www.w3.org/2000/svg">
<path d="M7.99998 4.39998C7.99998 4.17906 7.82089 3.99998 7.59998 3.99998C7.37906 3.99998 7.19998 4.17906 7.19998 4.39998V8.79998C7.19998 8.94352 7.27689 9.07606 7.40152 9.14727L10.2015 10.7473C10.3933 10.8569 10.6377 10.7902 10.7473 10.5984C10.8569 10.4066 10.7902 10.1623 10.5984 10.0527L7.99998 8.56785V4.39998Z" fill="#B2B2B2"/>
<path d="M7.99998 14.4C11.5346 14.4 14.4 11.5346 14.4 7.99998C14.4 4.46535 11.5346 1.59998 7.99998 1.59998C4.46535 1.59998 1.59998 4.46535 1.59998 7.99998C1.59998 11.5346 4.46535 14.4 7.99998 14.4ZM13.6 7.99998C13.6 11.0928 11.0928 13.6 7.99998 13.6C4.90718 13.6 2.39998 11.0928 2.39998 7.99998C2.39998 4.90718 4.90718 2.39998 7.99998 2.39998C11.0928 2.39998 13.6 4.90718 13.6 7.99998Z" fill="#B2B2B2"/>
</svg>
