<svg width="23" height="22" viewBox="0 0 23 22" fill="none" xmlns="http://www.w3.org/2000/svg">
<path fill-rule="evenodd" clip-rule="evenodd" d="M2.19049 15.7143C2.19049 15.2803 2.53783 14.9286 2.96628 14.9286H20.0337C20.4622 14.9286 20.8095 15.2803 20.8095 15.7143C20.8095 16.1482 20.4622 16.5 20.0337 16.5H2.96628C2.53783 16.5 2.19049 16.1482 2.19049 15.7143Z" fill="#919191"/>
<path fill-rule="evenodd" clip-rule="evenodd" d="M2.19049 11C2.19049 10.5661 2.53783 10.2143 2.96628 10.2143H13.8274C14.2559 10.2143 14.6032 10.5661 14.6032 11C14.6032 11.4339 14.2559 11.7857 13.8274 11.7857H2.96628C2.53783 11.7857 2.19049 11.4339 2.19049 11Z" fill="#919191"/>
<path fill-rule="evenodd" clip-rule="evenodd" d="M2.19049 6.28571C2.19049 5.85178 2.53783 5.5 2.96628 5.5H20.0337C20.4622 5.5 20.8095 5.85178 20.8095 6.28571C20.8095 6.71965 20.4622 7.07143 20.0337 7.07143H2.96628C2.53783 7.07143 2.19049 6.71965 2.19049 6.28571Z" fill="#919191"/>
</svg>
